<svg xmlns="http://www.w3.org/2000/svg">
  <symbol id="add" viewBox="0 0 24 24"><path d="M12 5v14M5 12h14" fill="none" stroke="currentColor" stroke-linecap="round" stroke-width="2"/></symbol>
  <symbol id="add_circle" viewBox="0 0 24 24"><circle cx="12" cy="12" r="9" fill="none" stroke="currentColor" stroke-width="2"/><path d="M12 8v8M8 12h8" fill="none" stroke="currentColor" stroke-linecap="round" stroke-width="2"/></symbol>
  <symbol id="add_photo_alternate" viewBox="0 0 24 24"><rect x="3" y="5" width="18" height="15" rx="2" fill="none" stroke="currentColor" stroke-width="2"/><circle cx="9" cy="10" r="2" fill="currentColor"/><path d="m5 18 5-5 3 3 2-2 4 4M17 2v6M14 5h6" fill="none" stroke="currentColor" stroke-linejoin="round" stroke-width="2"/></symbol>
  <symbol id="arrow_back" viewBox="0 0 24 24"><path d="m11 5-7 7 7 7M4 12h16" fill="none" stroke="currentColor" stroke-linecap="round" stroke-linejoin="round" stroke-width="2"/></symbol>
  <symbol id="chair" viewBox="0 0 24 24"><path d="M6 12V7a3 3 0 0 1 3-3h6a3 3 0 0 1 3 3v5M5 11a2 2 0 0 0-2 2v4h18v-4a2 2 0 0 0-2-2M6 17v3M18 17v3" fill="none" stroke="currentColor" stroke-linejoin="round" stroke-width="2"/></symbol>
  <symbol id="chat" viewBox="0 0 24 24"><path d="M4 5h16v12H9l-5 4V5Z" fill="none" stroke="currentColor" stroke-linejoin="round" stroke-width="2"/><path d="M8 9h8M8 13h5" stroke="currentColor" stroke-linecap="round" stroke-width="2"/></symbol>
  <symbol id="chat_bubble" viewBox="0 0 24 24"><path d="M4 4h16v13H9l-5 4V4Z" fill="currentColor"/></symbol>
  <symbol id="check" viewBox="0 0 24 24"><path d="m5 12 4 4L19 6" fill="none" stroke="currentColor" stroke-linecap="round" stroke-linejoin="round" stroke-width="2"/></symbol>
  <symbol id="checkroom" viewBox="0 0 24 24"><path d="M12 6a2 2 0 1 0-2-2M12 6v2L3 15v3h18v-3l-9-7" fill="none" stroke="currentColor" stroke-linecap="round" stroke-linejoin="round" stroke-width="2"/></symbol>
  <symbol id="chevron_left" viewBox="0 0 24 24"><path d="m15 5-7 7 7 7" fill="none" stroke="currentColor" stroke-linecap="round" stroke-linejoin="round" stroke-width="2"/></symbol>
  <symbol id="chevron_right" viewBox="0 0 24 24"><path d="m9 5 7 7-7 7" fill="none" stroke="currentColor" stroke-linecap="round" stroke-linejoin="round" stroke-width="2"/></symbol>
  <symbol id="devices" viewBox="0 0 24 24"><rect x="2" y="4" width="15" height="11" rx="1" fill="none" stroke="currentColor" stroke-width="2"/><rect x="15" y="9" width="7" height="11" rx="1" fill="none" stroke="currentColor" stroke-width="2"/><path d="M7 20h6M10 15v5" stroke="currentColor" stroke-width="2"/></symbol>
  <symbol id="done_all" viewBox="0 0 24 24"><path d="m2 12 4 4 7-8M9 16l4 4 9-12" fill="none" stroke="currentColor" stroke-linecap="round" stroke-linejoin="round" stroke-width="2"/></symbol>
  <symbol id="expand_more" viewBox="0 0 24 24"><path d="m5 9 7 7 7-7" fill="none" stroke="currentColor" stroke-linecap="round" stroke-linejoin="round" stroke-width="2"/></symbol>
  <symbol id="favorite" viewBox="0 0 24 24"><path d="M12 21 4 13a5 5 0 0 1 7-7l1 1 1-1a5 5 0 0 1 7 7l-8 8Z" fill="currentColor"/></symbol>
  <symbol id="favorite_border" viewBox="0 0 24 24"><path d="M12 21 4 13a5 5 0 0 1 7-7l1 1 1-1a5 5 0 0 1 7 7l-8 8Z" fill="none" stroke="currentColor" stroke-linejoin="round" stroke-width="2"/></symbol>
  <symbol id="flag" viewBox="0 0 24 24"><path d="M5 21V4m0 1h12l-2 4 2 4H5" fill="none" stroke="currentColor" stroke-linejoin="round" stroke-width="2"/></symbol>
  <symbol id="home" viewBox="0 0 24 24"><path d="m3 11 9-8 9 8v10h-6v-6H9v6H3V11Z" fill="none" stroke="currentColor" stroke-linejoin="round" stroke-width="2"/></symbol>
  <symbol id="kitchen" viewBox="0 0 24 24"><rect x="5" y="2" width="14" height="20" rx="2" fill="none" stroke="currentColor" stroke-width="2"/><path d="M5 10h14M8 6h3M8 14h3" stroke="currentColor" stroke-linecap="round" stroke-width="2"/></symbol>
  <symbol id="location_on" viewBox="0 0 24 24"><path d="M12 22s7-6 7-13a7 7 0 1 0-14 0c0 7 7 13 7 13Z" fill="none" stroke="currentColor" stroke-linejoin="round" stroke-width="2"/><circle cx="12" cy="9" r="2.5" fill="currentColor"/></symbol>
  <symbol id="lock" viewBox="0 0 24 24"><rect x="5" y="10" width="14" height="11" rx="2" fill="none" stroke="currentColor" stroke-width="2"/><path d="M8 10V7a4 4 0 0 1 8 0v3" fill="none" stroke="currentColor" stroke-width="2"/></symbol>
  <symbol id="logout" viewBox="0 0 24 24"><path d="M10 4H4v16h6M14 8l4 4-4 4M8 12h10" fill="none" stroke="currentColor" stroke-linecap="round" stroke-linejoin="round" stroke-width="2"/></symbol>
  <symbol id="menu_book" viewBox="0 0 24 24"><path d="M3 5a9 9 0 0 1 9 2v14a9 9 0 0 0-9-2V5Zm18 0a9 9 0 0 0-9 2v14a9 9 0 0 1 9-2V5Z" fill="none" stroke="currentColor" stroke-linejoin="round" stroke-width="2"/></symbol>
  <symbol id="more_horiz" viewBox="0 0 24 24"><circle cx="5" cy="12" r="2" fill="currentColor"/><circle cx="12" cy="12" r="2" fill="currentColor"/><circle cx="19" cy="12" r="2" fill="currentColor"/></symbol>
  <symbol id="more_vert" viewBox="0 0 24 24"><circle cx="12" cy="5" r="2" fill="currentColor"/><circle cx="12" cy="12" r="2" fill="currentColor"/><circle cx="12" cy="19" r="2" fill="currentColor"/></symbol>
  <symbol id="notifications" viewBox="0 0 24 24"><path d="M5 17h14l-2-3V9a5 5 0 0 0-10 0v5l-2 3ZM10 20h4" fill="none" stroke="currentColor" stroke-linecap="round" stroke-linejoin="round" stroke-width="2"/></symbol>
  <symbol id="person" viewBox="0 0 24 24"><circle cx="12" cy="8" r="4" fill="none" stroke="currentColor" stroke-width="2"/><path d="M4 21a8 8 0 0 1 16 0" fill="none" stroke="currentColor" stroke-linecap="round" stroke-width="2"/></symbol>
  <symbol id="report" viewBox="0 0 24 24"><path d="m7 3-4 4v10l4 4h10l4-4V7l-4-4H7Z" fill="none" stroke="currentColor" stroke-linejoin="round" stroke-width="2"/><path d="M12 7v6M12 17h.01" stroke="currentColor" stroke-linecap="round" stroke-width="2"/></symbol>
  <symbol id="schedule" viewBox="0 0 24 24"><circle cx="12" cy="12" r="9" fill="none" stroke="currentColor" stroke-width="2"/><path d="M12 7v6l4 2" fill="none" stroke="currentColor" stroke-linecap="round" stroke-width="2"/></symbol>
  <symbol id="search" viewBox="0 0 24 24"><circle cx="10.5" cy="10.5" r="6.5" fill="none" stroke="currentColor" stroke-width="2"/><path d="m16 16 5 5" stroke="currentColor" stroke-linecap="round" stroke-width="2"/></symbol>
  <symbol id="send" viewBox="0 0 24 24"><path d="m3 4 19 8-19 8 3-7 9-1-9-1-3-7Z" fill="none" stroke="currentColor" stroke-linejoin="round" stroke-width="2"/></symbol>
  <symbol id="shield" viewBox="0 0 24 24"><path d="M12 2 4 5v6c0 5 3 9 8 11 5-2 8-6 8-11V5l-8-3Z" fill="none" stroke="currentColor" stroke-linejoin="round" stroke-width="2"/><path d="m8 12 3 3 5-6" fill="none" stroke="currentColor" stroke-linecap="round" stroke-linejoin="round" stroke-width="2"/></symbol>
  <symbol id="sports_baseball" viewBox="0 0 24 24"><circle cx="12" cy="12" r="9" fill="none" stroke="currentColor" stroke-width="2"/><path d="M6 7c2 1 3 3 3 5s-1 4-3 5M18 7c-2 1-3 3-3 5s1 4 3 5" fill="none" stroke="currentColor" stroke-width="2"/></symbol>
  <symbol id="verified_user" viewBox="0 0 24 24"><path d="M12 2 4 5v6c0 5 3 9 8 11 5-2 8-6 8-11V5l-8-3Z" fill="currentColor"/><path d="m8 12 3 3 5-6" fill="none" stroke="white" stroke-linecap="round" stroke-linejoin="round" stroke-width="2"/></symbol>
  <symbol id="visibility" viewBox="0 0 24 24"><path d="M2 12s4-7 10-7 10 7 10 7-4 7-10 7S2 12 2 12Z" fill="none" stroke="currentColor" stroke-linejoin="round" stroke-width="2"/><circle cx="12" cy="12" r="3" fill="currentColor"/></symbol>
</svg>
